<?xml version="1.0" encoding="UTF-8"?>
<svg width="96px" height="96px" viewBox="0 0 96 96" version="1.1" xmlns="http://www.w3.org/2000/svg" xmlns:xlink="http://www.w3.org/1999/xlink">
    <!-- Generator: Sketch 56 (81588) - https://sketch.com -->
    <title>shower-rain-night</title>
    <desc>Created with Sketch.</desc>
    <defs>
        <linearGradient x1="50%" y1="0%" x2="50%" y2="100%" id="linearGradient-1">
            <stop stop-color="#000000" stop-opacity="0" offset="0%"></stop>
            <stop stop-color="#000000" stop-opacity="0.5" offset="100%"></stop>
        </linearGradient>
        <path d="M84.2189258,36.8199268 C89.1841605,36.2791015 93.1383101,32.073644 93.1383101,26.9206606 C93.1383101,22.2533384 89.8961922,18.2074243 85.5955205,17.3296649 C84.4177672,7.60292198 76.3338335,0 66.5288927,0 C59.6332608,0 53.5889025,3.68951015 50.1975217,9.28326617 C50.1136602,9.28164369 50.0303261,9.2583882 49.9459371,9.2583882 C42.6747744,9.2583882 36.7807339,15.58334 36.7807339,23.0391575 C36.7807339,30.2332156 42.2686526,36.2791015 49.1859092,36.8199268 L84.2189258,36.8199268 Z" id="path-2"></path>
        <path d="M16.5303618,51.6663289 L56.6323864,51.6663289 C63.9999628,51.6663289 70.0013478,45.4776248 70.0013478,38.1228435 C70.0013478,31.9341393 65.9374834,26.7621557 60.2221101,25.0767563 C60.0707739,19.5615268 55.5036123,15.1589348 49.8784854,15.1589348 C48.2436374,15.1589348 46.7032009,15.5556203 45.3279848,16.2215585 C42.8954975,10.5247717 37.1856778,6.53256766 30.5289653,6.53256766 C23.2703787,6.53256766 17.139872,11.292108 15.1551457,17.8185772 C6.5754908,18.8414639 -2.27373675e-13,25.9489162 -2.27373675e-13,34.6924392 C-2.27373675e-13,43.8532012 7.12599378,51.6663289 16.5303618,51.6663289" id="path-3"></path>
        <filter x="-24.3%" y="-28.8%" width="148.6%" height="175.3%" filterUnits="objectBoundingBox" id="filter-4">
            <feOffset dx="0" dy="4" in="SourceAlpha" result="shadowOffsetOuter1"></feOffset>
            <feGaussianBlur stdDeviation="5" in="shadowOffsetOuter1" result="shadowBlurOuter1"></feGaussianBlur>
            <feColorMatrix values="0 0 0 0 0   0 0 0 0 0   0 0 0 0 0  0 0 0 0.14 0" type="matrix" in="shadowBlurOuter1"></feColorMatrix>
        </filter>
    </defs>
    <g id="Page-1" stroke="none" stroke-width="1" fill="none" fill-rule="evenodd">
        <g id="Weather-icons" transform="translate(-946.000000, -137.000000)">
            <g id="icons" transform="translate(17.000000, 16.000000)">
                <g id="night" transform="translate(0.000000, 120.000000)">
                    <g id="shower-rain" transform="translate(931.000000, 8.000000)">
                        <g id="cloud">
                            <use fill="#2D6CB5" xlink:href="#path-2"></use>
                            <use fill-opacity="0.200000018" fill="url(#linearGradient-1)" xlink:href="#path-2"></use>
                        </g>
                        <g id="cloud">
                            <use fill="black" fill-opacity="1" filter="url(#filter-4)" xlink:href="#path-3"></use>
                            <use fill="#FFFFFF" fill-rule="evenodd" xlink:href="#path-3"></use>
                        </g>
                        <path d="M74.7479431,59.9808485 C77.3690319,59.9808485 79.4938443,57.701838 79.4938443,54.8905361 C79.4938443,52.0792341 74.7479431,45.7279736 74.7479431,45.7279736 C74.7479431,45.7279736 70.002042,52.0792341 70.002042,54.8905361 C70.002042,57.701838 72.1268543,59.9808485 74.7479431,59.9808485 Z" id="drop" fill="#F5F5F5"></path>
                        <path d="M13.6444658,73.1724213 C16.2655546,73.1724213 18.390367,70.8934108 18.390367,68.0821088 C18.390367,65.2708069 13.6444658,58.9195464 13.6444658,58.9195464 C13.6444658,58.9195464 8.89856466,65.2708069 8.89856466,68.0821088 C8.89856466,70.8934108 11.023377,73.1724213 13.6444658,73.1724213 Z" id="drop" fill="#F5F5F5"></path>
                        <path d="M49.6444658,84.1724213 C52.2655546,84.1724213 54.390367,81.8934108 54.390367,79.0821088 C54.390367,76.2708069 49.6444658,69.9195464 49.6444658,69.9195464 C49.6444658,69.9195464 44.8985647,76.2708069 44.8985647,79.0821088 C44.8985647,81.8934108 47.023377,84.1724213 49.6444658,84.1724213 Z" id="drop" fill="#F5F5F5"></path>
                        <path d="M38.5604468,64.3563277 C39.8709913,64.3563277 40.9333974,63.2168224 40.9333974,61.8111714 C40.9333974,60.4055205 38.5604468,57.2298902 38.5604468,57.2298902 C38.5604468,57.2298902 36.1874963,60.4055205 36.1874963,61.8111714 C36.1874963,63.2168224 37.2499024,64.3563277 38.5604468,64.3563277 Z" id="drop" fill="#F5F5F5"></path>
                        <path d="M65.0870819,73.6743379 C66.3976263,73.6743379 67.4600325,72.5348326 67.4600325,71.1291817 C67.4600325,69.7235307 65.0870819,66.5479005 65.0870819,66.5479005 C65.0870819,66.5479005 62.7141313,69.7235307 62.7141313,71.1291817 C62.7141313,72.5348326 63.7765375,73.6743379 65.0870819,73.6743379 Z" id="drop" fill="#F1F1F1"></path>
                        <path d="M29.0870819,80.6743379 C30.3976263,80.6743379 31.4600325,79.5348326 31.4600325,78.1291817 C31.4600325,76.7235307 29.0870819,73.5479005 29.0870819,73.5479005 C29.0870819,73.5479005 26.7141313,76.7235307 26.7141313,78.1291817 C26.7141313,79.5348326 27.7765375,80.6743379 29.0870819,80.6743379 Z" id="drop" fill="#F1F1F1"></path>
                    </g>
                </g>
            </g>
        </g>
    </g>
</svg>