<?xml version="1.0" encoding="iso-8859-1"?>
<!-- Generator: Adobe Illustrator 18.1.1, SVG Export Plug-In . SVG Version: 6.00 Build 0)  -->
<svg version="1.1" id="Capa_1" xmlns="http://www.w3.org/2000/svg" xmlns:xlink="http://www.w3.org/1999/xlink" x="0px" y="0px"
	 viewBox="0 0 311.566 311.566" style="enable-background:new 0 0 311.566 311.566;" xml:space="preserve">
<g>
	<g>
		<g>
			<path style="fill:#010002;" d="M136.811,30.497l-3.176,4.716C124.47,48.87,44.054,170.167,44.054,218.775
				c0,51.165,41.609,92.79,92.758,92.79c51.144,0,92.758-41.62,92.758-92.79c0-48.522-80.427-169.895-89.587-183.574L136.811,30.497
				z"/>
		</g>
		<g>
			<g>
				<g>
					<path style="fill:#010002;" d="M238.071,4.982l-0.963-1.441l-0.979,1.441c-2.817,4.194-27.462,41.359-27.462,56.256
						c0,15.675,12.765,28.425,28.441,28.425c15.665,0,28.43-12.749,28.43-28.425C265.538,46.368,240.888,9.181,238.071,4.982z
						 M237.108,87.319c-14.392,0-26.086-11.705-26.086-26.08c0-12.151,18.683-42.055,24.411-50.926l1.675-2.589l1.659,2.589
						c5.733,8.866,24.411,38.77,24.411,50.926C263.177,75.614,251.489,87.319,237.108,87.319z"/>
				</g>
			</g>
			<g>
				<g>
					<path style="fill:#010002;" d="M237.108,91.648c-16.774,0-30.426-13.641-30.426-30.41c0-15.164,23.16-50.442,27.805-57.36
						L237.102,0l2.605,3.878c4.645,6.929,27.804,42.267,27.804,57.36C267.518,78.007,253.871,91.648,237.108,91.648z"/>
				</g>
			</g>
		</g>
	</g>
</g>
<g>
</g>
<g>
</g>
<g>
</g>
<g>
</g>
<g>
</g>
<g>
</g>
<g>
</g>
<g>
</g>
<g>
</g>
<g>
</g>
<g>
</g>
<g>
</g>
<g>
</g>
<g>
</g>
<g>
</g>
</svg>
