<?xml version="1.0" encoding="iso-8859-1"?>
<!-- Generator: Adobe Illustrator 19.1.0, SVG Export Plug-In . SVG Version: 6.00 Build 0)  -->
<svg version="1.1" id="Capa_1" xmlns="http://www.w3.org/2000/svg" xmlns:xlink="http://www.w3.org/1999/xlink" x="0px" y="0px"
	 viewBox="0 0 362.734 362.734" style="enable-background:new 0 0 362.734 362.734;" xml:space="preserve">
<g>
	<g id="Snow">
		<g>
			<polygon points="337.78,230.856 327.939,208.815 285.174,228.974 204.972,181.356 206.899,180.222 285.174,133.761 
				327.939,153.919 337.78,131.879 310.23,118.886 340.048,101.176 328.257,80.179 298.439,97.889 301.273,66.869 277.782,64.601 
				273.383,112.741 195.086,159.225 193.181,160.359 193.181,65.146 231.525,37.142 217.874,17.369 193.181,35.396 193.181,0 
				169.576,0 169.576,35.396 144.86,17.369 131.232,37.142 169.576,65.146 169.576,160.359 167.649,159.225 89.374,112.741 
				84.975,64.601 61.484,66.869 64.318,97.889 34.5,80.179 22.686,101.176 52.527,118.886 24.977,131.879 34.818,153.919 
				77.583,133.761 155.858,180.222 157.785,181.356 77.583,228.974 34.818,208.815 24.977,230.856 52.527,243.848 22.686,261.535 
				34.5,282.555 64.318,264.846 61.484,295.865 84.975,298.11 89.374,249.971 169.576,202.376 169.576,297.589 131.232,325.57 
				144.86,345.365 169.576,327.316 169.576,362.734 193.181,362.734 193.181,327.316 217.874,345.365 231.525,325.57 
				193.181,297.589 193.181,202.376 273.383,249.971 277.782,298.11 301.273,295.865 298.439,264.846 328.257,282.555 
				340.048,261.535 310.23,243.848 			"/>
		</g>
	</g>
</g>
</svg>
